<svg width="112" height="20" viewBox="0 0 112 20" fill="none" xmlns="http://www.w3.org/2000/svg">
<g clip-path="url(#clip0_4928_81075)">
<mask id="mask0_4928_81075" style="mask-type:alpha" maskUnits="userSpaceOnUse" x="0" y="0" width="112" height="20">
<path d="M111.177 0.476562H0V19.5951H111.177V0.476562Z" fill="white"/>
</mask>
<g mask="url(#mask0_4928_81075)">
<path fill-rule="evenodd" clip-rule="evenodd" d="M9.77955 5.19468H3.94435L4.37384 3.62897C4.91893 1.8395 6.55523 0.578084 8.46184 0.477539H28.2639L27.8451 2.00659C27.2954 3.81741 25.6407 5.09465 23.7119 5.19706L9.77955 5.19468ZM9.03986 7.89516H22.0416L21.8015 8.76992C21.2514 10.5811 19.5961 11.8584 17.6668 11.9604H7.92765C7.23033 14.5061 6.53236 17.0512 5.83374 19.5956H0L2.3335 11.0775C2.88327 9.27053 4.53534 7.99659 6.46045 7.89516H9.03986Z" fill="white"/>
<path fill-rule="evenodd" clip-rule="evenodd" d="M30.2244 0.477539H36.0596L30.8219 19.5942H24.9867L30.2244 0.477539Z" fill="white"/>
<path fill-rule="evenodd" clip-rule="evenodd" d="M56.4943 0.477539H41.2783C39.3501 0.580057 37.6956 1.85593 37.1441 3.66563L36.7253 5.19421H45.3152C44.0001 9.99421 42.6853 14.7944 41.3708 19.5947H47.2056C48.5207 14.7947 49.8355 9.99452 51.1499 5.19421H59.7379L61.0303 0.47992L56.4943 0.477539Z" fill="white"/>
<path fill-rule="evenodd" clip-rule="evenodd" d="M67.5122 0.477515H62.9766L62.1035 3.66466L61.6848 5.19323H70.2722C68.9574 9.99323 67.6427 14.7934 66.3279 19.5937H72.1626C73.4777 14.7937 74.7925 9.99355 76.1069 5.19323H81.4342C83.3625 5.09107 85.0171 3.81501 85.568 2.00513L85.9868 0.476562L67.5122 0.477515Z" fill="white"/>
<path fill-rule="evenodd" clip-rule="evenodd" d="M100.459 19.5937H106.655L104.561 11.9237L105.681 11.9204C107.504 11.8215 109.068 10.6133 109.588 8.90132C110.082 7.09942 110.576 5.29752 111.069 3.49561C111.524 1.83228 110.508 0.476562 108.807 0.476562H91.1821C89.2545 0.578835 87.6004 1.85444 87.0493 3.66371L86.6301 5.19466H104.446L103.721 7.84037C98.7986 7.84037 93.8847 7.89085 88.9626 7.90847C87.1403 8.00992 85.5788 9.21806 85.0587 10.9289L82.6838 19.5956H88.8404C89.537 17.0524 90.2336 14.5104 90.9299 11.9694C93.3924 11.9694 95.8506 11.9589 98.3063 11.9504L100.459 19.5937Z" fill="white"/>
</g>
</g>
<defs>
<clipPath id="clip0_4928_81075">
<rect width="112" height="20" fill="white"/>
</clipPath>
</defs>
</svg>
