<svg width="112" height="20" viewBox="0 0 112 20" fill="none" xmlns="http://www.w3.org/2000/svg">
<g clip-path="url(#clip0_2638_145868)">
<mask id="mask0_2638_145868" style="mask-type:alpha" maskUnits="userSpaceOnUse" x="0" y="0" width="112" height="20">
<path d="M111.177 0.476562H0V19.5951H111.177V0.476562Z" fill="white"/>
</mask>
<g mask="url(#mask0_2638_145868)">
<path fill-rule="evenodd" clip-rule="evenodd" d="M9.77955 5.19371H3.94435L4.37384 3.62799C4.91893 1.83852 6.55523 0.577107 8.46184 0.476562H28.2639L27.8451 2.00561C27.2954 3.81643 25.6407 5.09367 23.7119 5.19609L9.77955 5.19371ZM9.03986 7.89418H22.0416L21.8015 8.76894C21.2514 10.5802 19.5961 11.8575 17.6668 11.9594H7.92765C7.23033 14.5051 6.53236 17.0502 5.83374 19.5947H0L2.3335 11.0766C2.88327 9.26956 4.53534 7.99562 6.46045 7.89418H9.03986Z" fill="black"/>
<path fill-rule="evenodd" clip-rule="evenodd" d="M30.2245 0.476562H36.0597L30.822 19.5932H24.9868L30.2245 0.476562Z" fill="black"/>
<path fill-rule="evenodd" clip-rule="evenodd" d="M56.4941 0.476562H41.2781C39.3499 0.57908 37.6954 1.85496 37.1439 3.66466L36.7251 5.19323H45.315C43.9999 9.99323 42.6851 14.7934 41.3707 19.5937H47.2054C48.5205 14.7937 49.8353 9.99355 51.1497 5.19323H59.7377L61.0301 0.478943L56.4941 0.476562Z" fill="black"/>
<path fill-rule="evenodd" clip-rule="evenodd" d="M67.512 0.477515H62.9765L62.1033 3.66466L61.6846 5.19323H70.272C68.9573 9.99323 67.6425 14.7934 66.3277 19.5937H72.1624C73.4775 14.7937 74.7923 9.99355 76.1068 5.19323H81.4341C83.3623 5.09107 85.0169 3.81501 85.5678 2.00513L85.9866 0.476562L67.512 0.477515Z" fill="black"/>
<path fill-rule="evenodd" clip-rule="evenodd" d="M100.458 19.5937H106.655L104.561 11.9237L105.681 11.9204C107.504 11.8215 109.068 10.6133 109.588 8.90132C110.082 7.09942 110.575 5.29752 111.069 3.49561C111.524 1.83228 110.508 0.476562 108.807 0.476562H91.182C89.2543 0.578835 87.6002 1.85444 87.0492 3.66371L86.6299 5.19466H104.446L103.721 7.84037C98.7984 7.84037 93.8846 7.89085 88.9624 7.90847C87.1401 8.00992 85.5786 9.21806 85.0585 10.9289L82.6836 19.5956H88.8402C89.5369 17.0524 90.2334 14.5104 90.9297 11.9694C93.3923 11.9694 95.8504 11.9589 98.3061 11.9504L100.458 19.5937Z" fill="black"/>
</g>
</g>
<defs>
<clipPath id="clip0_2638_145868">
<rect width="112" height="20" fill="white"/>
</clipPath>
</defs>
</svg>
