<svg width="20" height="20" viewBox="0 0 20 20" fill="none" xmlns="http://www.w3.org/2000/svg">
<path d="M12.625 7.00003C11.335 6.9956 10.0963 7.50436 9.18181 8.41415C8.26733 9.32394 7.75221 10.5601 7.75 11.85V16.75C7.75 16.9489 7.82902 17.1397 7.96967 17.2804C8.11032 17.421 8.30109 17.5 8.5 17.5H10.25C10.6642 17.5 11 17.1642 11 16.75V11.85C10.9997 11.3906 11.1948 10.9527 11.5367 10.6458C11.8786 10.3389 12.3349 10.192 12.7917 10.2417C13.63 10.3473 14.2566 11.0635 14.25 11.9084V16.75C14.25 17.1642 14.5858 17.5 15 17.5H16.75C17.1642 17.5 17.5 17.1642 17.5 16.75V11.85C17.4978 10.5601 16.9827 9.32394 16.0682 8.41415C15.1537 7.50436 13.915 6.9956 12.625 7.00003V7.00003Z" fill="white"/>
<rect x="2.5" y="7.75" width="3.75" height="9.75" rx="0.9" fill="white"/>
<circle cx="4.375" cy="4.375" r="1.875" fill="white"/>
</svg>
