<svg width="24" height="24" viewBox="0 0 24 24" fill="none" xmlns="http://www.w3.org/2000/svg">
<path d="M17.5598 21.0002C17.3999 21.0008 17.2421 20.9631 17.0998 20.8902L11.9998 18.2202L6.89979 20.8902C6.56192 21.0679 6.15238 21.0377 5.84422 20.8124C5.53605 20.5871 5.38302 20.206 5.44979 19.8302L6.44979 14.2002L2.32979 10.2002C2.06784 9.9388 1.97167 9.55412 2.07979 9.2002C2.19803 8.83763 2.51221 8.57387 2.88979 8.5202L8.58979 7.6902L11.0998 2.5602C11.2669 2.21521 11.6165 1.99609 11.9998 1.99609C12.3831 1.99609 12.7327 2.21521 12.8998 2.5602L15.4398 7.6802L21.1398 8.5102C21.5174 8.56387 21.8315 8.82763 21.9498 9.1902C22.0579 9.54412 21.9617 9.9288 21.6998 10.1902L17.5798 14.1902L18.5798 19.8202C18.6527 20.203 18.4966 20.5933 18.1798 20.8202C17.9987 20.9471 17.7807 21.0104 17.5598 21.0002V21.0002Z" fill="url(#paint0_linear_6470_396453)"/>
<defs>
<linearGradient id="paint0_linear_6470_396453" x1="-7.94252" y1="11.5006" x2="11.044" y2="31.4343" gradientUnits="userSpaceOnUse">
<stop stop-color="#FFE16A"/>
<stop offset="1" stop-color="#B78103"/>
</linearGradient>
</defs>
</svg>
