<svg width="24" height="24" viewBox="0 0 24 24" fill="none" xmlns="http://www.w3.org/2000/svg">
<g clip-path="url(#clip0_5114_157221)">
<path d="M18.7162 14.4924C17.7366 14.4924 16.7747 14.3392 15.8633 14.038C15.4167 13.8857 14.8676 14.0254 14.595 14.3054L12.796 15.6634C10.7096 14.5497 9.42446 13.265 8.32596 11.1943L9.64408 9.44211C9.98654 9.10011 10.1094 8.60053 9.96221 8.13178C9.65971 7.21553 9.50604 6.25415 9.50604 5.27415C9.50608 4.56619 8.93013 3.99023 8.22221 3.99023H5.28387C4.57596 3.99023 4 4.56619 4 5.27411C4 13.3887 10.6016 19.9902 18.7162 19.9902C19.4241 19.9902 20 19.4143 20 18.7064V15.7762C20 15.0684 19.424 14.4924 18.7162 14.4924Z" fill="white"/>
</g>
<defs>
<clipPath id="clip0_5114_157221">
<rect width="16" height="16" fill="white" transform="translate(4 3.99023)"/>
</clipPath>
</defs>
</svg>
