<svg width="24" height="24" viewBox="0 0 24 24" fill="none" xmlns="http://www.w3.org/2000/svg">
<path d="M10.6628 13.7845C11.0609 14.0499 11.5233 14.1901 12 14.1901C12.4767 14.1901 12.9391 14.0499 13.3371 13.7845L19.8935 9.41345C19.9298 9.3892 19.9653 9.36392 20 9.33792V16.5003C20 17.3215 19.3336 17.9732 18.5271 17.9732H5.47294C4.65175 17.9732 4.00003 17.3068 4.00003 16.5003V9.33789C4.03481 9.36395 4.07031 9.3893 4.10678 9.41358L10.6628 13.7845Z" fill="white"/>
<path d="M19.3734 8.63373L12.8171 13.0048C12.5689 13.1703 12.2845 13.253 12 13.253C11.7156 13.253 11.4311 13.1702 11.1829 13.0048L4.62656 8.63373C4.23422 8.37233 4 7.93483 4 7.46264C4 6.65073 4.66053 5.99023 5.47241 5.99023H18.5276C19.3395 5.99027 20 6.65077 20 7.46342C20 7.93483 19.7658 8.37233 19.3734 8.63373V8.63373Z" fill="white"/>
</svg>
