<svg width="20" height="20" viewBox="0 0 20 20" fill="none" xmlns="http://www.w3.org/2000/svg">
<path fill-rule="evenodd" clip-rule="evenodd" d="M6.56432 1.71699C7.45321 1.67671 7.73689 1.66699 10.0001 1.66699C12.2633 1.66699 12.547 1.67671 13.4358 1.71699C14.7907 1.7788 15.9799 2.11074 16.9348 3.0656C17.89 4.02081 18.2216 5.2104 18.2834 6.56456C18.3237 7.45345 18.3334 7.73713 18.3334 10.0003C18.3334 12.2635 18.3237 12.5472 18.2834 13.4361C18.2216 14.791 17.8897 15.9802 16.9348 16.935C15.9796 17.8903 14.7897 18.2219 13.4358 18.2837C12.547 18.3239 12.2633 18.3337 10.0001 18.3337C7.73689 18.3337 7.45321 18.3239 6.56432 18.2837C5.20946 18.2219 4.02022 17.8899 3.06536 16.935C2.11015 15.9798 1.77855 14.7903 1.71675 13.4361C1.67647 12.5472 1.66675 12.2635 1.66675 10.0003C1.66675 7.73713 1.67647 7.45345 1.71675 6.56456C1.77855 5.2097 2.1105 4.02046 3.06536 3.0656C4.02057 2.11039 5.21015 1.7788 6.56432 1.71699ZM10.0001 4.44477C8.4914 4.44477 8.30217 4.45102 7.70946 4.4781C6.80668 4.51942 6.01362 4.7406 5.37682 5.37706C4.74036 6.01352 4.51918 6.80658 4.47786 7.7097C4.45078 8.30241 4.44453 8.49164 4.44453 10.0003C4.44453 11.509 4.45078 11.6982 4.47786 12.291C4.51918 13.1937 4.74036 13.9868 5.37682 14.6236C6.01328 15.26 6.80633 15.4812 7.70946 15.5225C8.30217 15.5496 8.4914 15.5559 10.0001 15.5559C11.5088 15.5559 11.698 15.5496 12.2907 15.5225C13.1935 15.4812 13.9865 15.26 14.6233 14.6236C15.2598 13.9871 15.481 13.1941 15.5223 12.291C15.5494 11.6982 15.5556 11.509 15.5556 10.0003C15.5556 8.49164 15.5494 8.30241 15.5223 7.7097C15.481 6.80692 15.2598 6.01387 14.6233 5.37706C13.9869 4.7406 13.1938 4.51942 12.2907 4.4781C11.698 4.45102 11.5088 4.44477 10.0001 4.44477ZM10.0001 5.44581C11.4834 5.44581 11.6591 5.45137 12.2449 5.4781C12.8772 5.50692 13.464 5.63366 13.9154 6.08505C14.3667 6.53644 14.4935 7.12324 14.5223 7.75553C14.549 8.3413 14.5546 8.51699 14.5546 10.0003C14.5546 11.4837 14.549 11.6594 14.5223 12.2451C14.4935 12.8774 14.3667 13.4642 13.9154 13.9156C13.464 14.367 12.8772 14.4937 12.2449 14.5225C11.6591 14.5493 11.4834 14.5548 10.0001 14.5548C8.51675 14.5548 8.34105 14.5493 7.75529 14.5225C7.123 14.4937 6.53619 14.367 6.0848 13.9156C5.63341 13.4642 5.50668 12.8774 5.47786 12.2451C5.45112 11.6594 5.44557 11.4837 5.44557 10.0003C5.44557 8.51699 5.45112 8.3413 5.47786 7.75553C5.50668 7.12324 5.63341 6.53644 6.0848 6.08505C6.53619 5.63366 7.123 5.50692 7.75529 5.4781C8.34105 5.45137 8.51675 5.44581 10.0001 5.44581ZM7.1473 10.0003C7.1473 8.42498 8.42439 7.14755 10.0001 7.14755C11.5758 7.14755 12.8529 8.42498 12.8529 10.0003C12.8529 11.5757 11.5754 12.8531 10.0001 12.8531C8.42474 12.8531 7.1473 11.5757 7.1473 10.0003ZM8.14835 10.0003C8.14835 11.0229 8.97716 11.8521 10.0001 11.8521C11.023 11.8521 11.8518 11.0232 11.8518 10.0003C11.8518 8.97776 11.023 8.14859 10.0001 8.14859C8.97751 8.14859 8.14835 8.97741 8.14835 10.0003ZM12.9657 7.70137C13.3339 7.70137 13.6324 7.40289 13.6324 7.0347C13.6324 6.66651 13.3339 6.36803 12.9657 6.36803C12.5975 6.36803 12.299 6.66651 12.299 7.0347C12.299 7.40289 12.5975 7.70137 12.9657 7.70137Z" fill="white"/>
</svg>
